<svg width="22" height="22" viewBox="0 0 22 22" fill="none" xmlns="http://www.w3.org/2000/svg">
<path d="M21.5 3.17432V19.6743C21.5 20.2993 21.2812 20.8306 20.8438 21.2681C20.4062 21.7056 19.875 21.9243 19.25 21.9243H15.2656V13.6274H18.0781L18.5 10.4399H15.2656V8.42432C15.2656 7.92432 15.3594 7.54932 15.5469 7.29932C15.7969 7.01807 16.2188 6.87744 16.8125 6.87744H18.5V4.06494C17.8438 3.97119 17.0312 3.92432 16.0625 3.92432C14.8125 3.92432 13.8125 4.29932 13.0625 5.04932C12.3438 5.76807 11.9844 6.78369 11.9844 8.09619V10.4399H9.125V13.6274H11.9844V21.9243H2.75C2.125 21.9243 1.59375 21.7056 1.15625 21.2681C0.71875 20.8306 0.5 20.2993 0.5 19.6743V3.17432C0.5 2.54932 0.71875 2.01807 1.15625 1.58057C1.59375 1.14307 2.125 0.924316 2.75 0.924316H19.25C19.875 0.924316 20.4062 1.14307 20.8438 1.58057C21.2812 2.01807 21.5 2.54932 21.5 3.17432Z" fill="url(#paint0_linear)"/>
<defs>
<linearGradient id="paint0_linear" x1="11" y1="-0.575684" x2="11" y2="23.2076" gradientUnits="userSpaceOnUse">
<stop stop-color="#BC9CFF"/>
<stop offset="1" stop-color="#8BA4F9"/>
</linearGradient>
</defs>
</svg>
