<svg width="24" height="21" viewBox="0 0 24 21" fill="none" xmlns="http://www.w3.org/2000/svg">
<path d="M21.5156 5.54932C21.5469 5.67432 21.5625 5.87744 21.5625 6.15869C21.5625 8.40869 21.0156 10.5806 19.9219 12.6743C18.7969 14.8931 17.2188 16.6587 15.1875 17.9712C12.9688 19.4399 10.4219 20.1743 7.54688 20.1743C4.79688 20.1743 2.28125 19.4399 0 17.9712C0.34375 18.0024 0.734375 18.0181 1.17188 18.0181C3.45312 18.0181 5.5 17.3149 7.3125 15.9087C6.21875 15.9087 5.25 15.5962 4.40625 14.9712C3.59375 14.3149 3.03125 13.5024 2.71875 12.5337C3.03125 12.5649 3.32812 12.5806 3.60938 12.5806C4.04688 12.5806 4.48438 12.5337 4.92188 12.4399C3.79688 12.1899 2.85938 11.6118 2.10938 10.7056C1.35938 9.79932 0.984375 8.76807 0.984375 7.61182V7.51807C1.67188 7.92432 2.40625 8.14307 3.1875 8.17432C2.53125 7.70557 2 7.11182 1.59375 6.39307C1.1875 5.67432 0.984375 4.89307 0.984375 4.04932C0.984375 3.17432 1.21875 2.34619 1.6875 1.56494C2.90625 3.09619 4.39062 4.31494 6.14062 5.22119C7.92188 6.12744 9.8125 6.62744 11.8125 6.72119C11.75 6.34619 11.7188 5.97119 11.7188 5.59619C11.7188 4.72119 11.9375 3.90869 12.375 3.15869C12.8125 2.37744 13.4062 1.76807 14.1562 1.33057C14.9062 0.893066 15.7188 0.674316 16.5938 0.674316C17.3125 0.674316 17.9688 0.814941 18.5625 1.09619C19.1875 1.37744 19.7344 1.75244 20.2031 2.22119C21.3281 2.00244 22.375 1.61182 23.3438 1.04932C22.9688 2.20557 22.25 3.11182 21.1875 3.76807C22.125 3.64307 23.0625 3.37744 24 2.97119C23.3125 3.97119 22.4844 4.83057 21.5156 5.54932Z" fill="url(#paint0_linear)"/>
<defs>
<linearGradient id="paint0_linear" x1="12" y1="-1.57568" x2="12" y2="22.2076" gradientUnits="userSpaceOnUse">
<stop stop-color="#BC9CFF"/>
<stop offset="1" stop-color="#8BA4F9"/>
</linearGradient>
</defs>
</svg>
